<svg xmlns="http://www.w3.org/2000/svg" width="46" height="46" viewBox="0 0 46 46" fill="none"><path fill-rule="evenodd" clip-rule="evenodd" d="M37.3569 5.73126C37.7199 5.71858 38.073 5.85063 38.3387 6.09835C38.6043 6.34607 38.7607 6.68918 38.7734 7.05218L39.3469 23.4768C39.3596 23.8399 39.2276 24.193 38.9799 24.4587C38.7321 24.7243 38.389 24.8807 38.026 24.8934C37.663 24.906 37.3098 24.774 37.0442 24.5263C36.7785 24.2785 36.6222 23.9354 36.6095 23.5724L36.1513 10.4519L9.34699 39.1986C9.22418 39.3303 9.07662 39.4365 8.91275 39.5112C8.74889 39.5859 8.57192 39.6276 8.39194 39.6338C8.21197 39.6401 8.03253 39.6109 7.86385 39.5478C7.69517 39.4848 7.54057 39.3891 7.40887 39.2663C7.27716 39.1435 7.17094 38.9959 7.09626 38.8321C7.02158 38.6682 6.97991 38.4912 6.97363 38.3113C6.96734 38.1313 6.99657 37.9518 7.05963 37.7832C7.1227 37.6145 7.21837 37.4599 7.34119 37.3282L34.1483 8.58408L21.0277 9.04227C20.6647 9.05494 20.3115 8.9229 20.0458 8.67518C19.7802 8.42746 19.6238 8.08435 19.6111 7.72134C19.5985 7.35834 19.7305 7.00516 19.9782 6.73951C20.226 6.47386 20.5691 6.3175 20.9321 6.30483L37.3569 5.73126Z" fill="white"></path></svg>