<svg xmlns="http://www.w3.org/2000/svg" width="20" height="21" viewBox="0 0 20 21" fill="none"><path d="M1.66797 2.16602C1.6674 4.37585 2.54489 6.4954 4.10743 8.05844C5.66996 9.62148 7.78955 10.5 9.99995 10.5007L9.99995 2.16602L1.66797 2.16602ZM9.99995 10.5007L18.3346 10.5007V2.16602C17.2399 2.16587 16.1558 2.38138 15.1444 2.80021C14.133 3.21904 13.2141 3.833 12.4401 4.607C11.666 5.381 11.0522 6.29989 10.6335 7.31115C10.2148 8.32241 9.99953 9.40623 9.99995 10.5007ZM9.99995 10.5007L9.99995 18.8327L18.3346 18.8327C18.3347 17.7384 18.1192 16.6549 17.7003 15.644C17.2815 14.633 16.6676 13.7145 15.8936 12.9407C15.1196 12.167 14.2008 11.5533 13.1895 11.1346C12.1783 10.716 11.0945 10.5006 9.99995 10.5007ZM9.99995 10.5007L1.66797 10.5007L1.66797 18.8327C3.87799 18.8323 5.99734 17.9542 7.55986 16.3917C9.12238 14.8292 10.0001 12.7101 9.99995 10.5007Z" fill="#090B0E"></path></svg>