<svg xmlns="http://www.w3.org/2000/svg" width="20" height="20" viewBox="0 0 20 20" fill="none"><path d="M2 2C1.99942 4.25403 2.89446 6.41597 4.48825 8.01027C6.08203 9.60458 8.24402 10.5006 10.4986 10.5014V2H2ZM10.4986 10.5014H19V2C17.8834 1.99986 16.7776 2.21967 15.746 2.64688C14.7143 3.07409 13.777 3.70032 12.9875 4.48981C12.198 5.27929 11.5719 6.21655 11.1448 7.24804C10.7178 8.27952 10.4982 9.38502 10.4986 10.5014ZM10.4986 10.5014V19H19C19.0001 17.8839 18.7802 16.7787 18.353 15.7475C17.9258 14.7163 17.2996 13.7794 16.5101 12.9902C15.7207 12.201 14.7835 11.575 13.752 11.148C12.7205 10.721 11.615 10.5012 10.4986 10.5014ZM10.4986 10.5014H2V19C4.25422 18.9996 6.41596 18.104 8.00973 16.5102C9.6035 14.9164 10.4988 12.755 10.4986 10.5014Z" fill="#FF0A54"></path></svg>