<svg xmlns="http://www.w3.org/2000/svg" width="32" height="33" viewBox="0 0 32 33" fill="none"><path d="M30.8565 11.0548L28.9542 7.25229C28.8323 7.00421 28.6621 6.78291 28.4534 6.60137C28.2447 6.41983 28.0018 6.28171 27.739 6.19511C27.4761 6.10851 27.1986 6.07517 26.9227 6.09705C26.6468 6.11893 26.3781 6.19559 26.1323 6.32253L20.5348 9.26917L20.8734 2.80693C20.9077 2.2473 20.7179 1.69695 20.3459 1.27686C19.9738 0.856769 19.4498 0.601324 18.8892 0.566679L14.5438 0.338947C13.9827 0.314801 13.4349 0.51408 13.0209 0.892976C12.607 1.27187 12.3607 1.79937 12.3363 2.35952L11.9976 8.82176L6.73439 5.30878C6.50319 5.15684 6.24394 5.05251 5.97184 5.00191C5.69973 4.95131 5.42025 4.95546 5.1498 5.01411C4.87934 5.07276 4.62335 5.18474 4.39684 5.34347C4.17034 5.5022 3.97787 5.70449 3.83075 5.93847L1.54578 9.51873C1.24123 9.99292 1.135 10.5674 1.24986 11.1189C1.36472 11.6705 1.69152 12.1552 2.16018 12.4691L7.49713 15.9916L1.81836 18.9368C1.31992 19.2005 0.944831 19.6486 0.773494 20.1851C0.602157 20.7216 0.648209 21.3038 0.901779 21.8069L2.80269 25.6094C2.92455 25.8575 3.09482 26.0788 3.30349 26.2603C3.51216 26.4419 3.75505 26.58 4.01789 26.6666C4.28074 26.7532 4.55825 26.7865 4.83415 26.7646C5.11006 26.7428 5.3788 26.6661 5.6246 26.5392L11.2235 23.5926L10.8849 30.0548C10.859 30.6189 11.0568 31.1705 11.4354 31.5901C11.8139 32.0098 12.3428 32.2638 12.9075 32.2971L17.1761 32.5208C17.7411 32.5467 18.2937 32.3494 18.714 31.9716C19.1344 31.5938 19.3887 31.0659 19.422 30.5023L19.7607 24.04L25.0236 27.5587C25.2548 27.7106 25.5141 27.8149 25.7862 27.8655C26.0583 27.9161 26.3378 27.912 26.6082 27.8533C26.8787 27.7947 27.1347 27.6827 27.3612 27.524C27.5877 27.3653 27.7801 27.163 27.9273 26.929L30.2166 23.3461C30.5212 22.8719 30.6274 22.2974 30.5126 21.7459C30.3977 21.1944 30.0709 20.7097 29.6022 20.3958L24.2626 16.8702L29.9414 13.925C30.4396 13.6611 30.8144 13.2129 30.9854 12.6764C31.1565 12.1399 31.1102 11.5578 30.8565 11.0548Z" fill="white"></path></svg>