<svg xmlns="http://www.w3.org/2000/svg" width="17" height="18" viewBox="0 0 17 18" fill="none"><path d="M0.155274 0.666016C0.154702 2.87585 1.0322 4.9954 2.59473 6.55844C4.15727 8.12148 6.27686 8.99998 8.48726 9.0007L8.48726 0.666016L0.155274 0.666016ZM8.48726 9.0007L16.8219 9.0007V0.666016C15.7272 0.665874 14.6431 0.881376 13.6317 1.30021C12.6203 1.71904 11.7014 2.333 10.9274 3.107C10.1534 3.881 9.53947 4.79989 9.12079 5.81115C8.70211 6.82241 8.48683 7.90623 8.48726 9.0007ZM8.48726 9.0007L8.48726 17.3327L16.8219 17.3327C16.822 16.2384 16.6065 15.1549 16.1876 14.144C15.7688 13.133 15.1549 12.2145 14.3809 11.4407C13.6069 10.667 12.6881 10.0533 11.6769 9.63463C10.6656 9.21597 9.58178 9.00056 8.48726 9.0007ZM8.48726 9.0007L0.155274 9.0007L0.155274 17.3327C2.3653 17.3323 4.48465 16.4542 6.04717 14.8917C7.60969 13.3292 8.4874 11.2101 8.48726 9.0007Z" fill="#9C55FE"></path></svg>