<svg width="25" height="26" viewBox="0 0 25 26" fill="none" xmlns="http://www.w3.org/2000/svg">
<path d="M4.1896e-07 0.5C-0.00085733 3.81475 1.31539 6.99408 3.65919 9.33864C6.00299 11.6832 9.18237 13.0009 12.498 13.002V0.5H4.1896e-07ZM12.498 13.002H25V0.5C23.3579 0.499788 21.7318 0.823041 20.2147 1.45129C18.6976 2.07954 17.3191 3.00047 16.1581 4.16148C14.9971 5.32248 14.0763 6.70081 13.4483 8.2177C12.8203 9.73459 12.4973 11.3603 12.498 13.002ZM12.498 13.002V25.5H25C25.0001 23.8586 24.6768 22.2333 24.0485 20.7169C23.4203 19.2005 22.4994 17.8227 21.3384 16.6621C20.1775 15.5015 18.7992 14.5809 17.2824 13.9529C15.7655 13.3249 14.1398 13.0018 12.498 13.002ZM12.498 13.002H4.1896e-07V25.5C3.31503 25.4994 6.49406 24.1823 8.83784 21.8385C11.1816 19.4947 12.4982 16.3162 12.498 13.002Z" fill="white"/>
</svg>
